{
	"asset":{
		"generator":"Khronos glTF Blender I/O v3.6.27",
		"version":"2.0"
	},
	"scene":0,
	"scenes":[
		{
			"name":"Scene",
			"nodes":[
				0
			]
		}
	],
	"nodes":[
		{
			"mesh":0,
			"name":"Curve.001",
			"rotation":[
				0.7071068286895752,
				0,
				0,
				0.7071068286895752
			],
			"scale":[
				1.5005275011062622,
				1.5005275011062622,
				1.5005275011062622
			],
			"translation":[
				-0.7660797238349915,
				0.020066529512405396,
				0
			]
		}
	],
	"materials":[
		{
			"doubleSided":true,
			"name":"Material.001",
			"pbrMetallicRoughness":{
				"metallicFactor":0,
				"roughnessFactor":0.1785714328289032
			}
		}
	],
	"meshes":[
		{
			"name":"Curve.001",
			"primitives":[
				{
					"attributes":{
						"POSITION":0,
						"NORMAL":1,
						"TEXCOORD_0":2
					},
					"indices":3,
					"material":0
				}
			]
		}
	],
	"accessors":[
		{
			"bufferView":0,
			"componentType":5126,
			"count":1214,
			"max":[
				-0.1197303757071495,
				0.004816840402781963,
				-0.09736737608909607
			],
			"min":[
				-0.13359561562538147,
				5.845519068792271e-10,
				-0.1104365885257721
			],
			"type":"VEC3"
		},
		{
			"bufferView":1,
			"componentType":5126,
			"count":1214,
			"type":"VEC3"
		},
		{
			"bufferView":2,
			"componentType":5126,
			"count":1214,
			"type":"VEC2"
		},
		{
			"bufferView":3,
			"componentType":5123,
			"count":2436,
			"type":"SCALAR"
		}
	],
	"bufferViews":[
		{
			"buffer":0,
			"byteLength":14568,
			"byteOffset":0,
			"target":34962
		},
		{
			"buffer":0,
			"byteLength":14568,
			"byteOffset":14568,
			"target":34962
		},
		{
			"buffer":0,
			"byteLength":9712,
			"byteOffset":29136,
			"target":34962
		},
		{
			"buffer":0,
			"byteLength":4872,
			"byteOffset":38848,
			"target":34963
		}
	],
	"buffers":[
		{
			"byteLength":43720,
			"uri":"data:application/octet-stream;base64,"
		}
	]
}
