{
	"asset":{
		"generator":"Khronos glTF Blender I/O v3.6.27",
		"version":"2.0"
	},
	"scene":0,
	"scenes":[
		{
			"name":"Scene",
			"nodes":[
				0
			]
		}
	],
	"nodes":[
		{
			"mesh":0,
			"name":"Curve.008",
			"rotation":[
				0.7071068286895752,
				0,
				0,
				0.7071068286895752
			],
			"scale":[
				1.5005275011062622,
				1.5005275011062622,
				1.5005275011062622
			],
			"translation":[
				-0.7660797238349915,
				0.020066529512405396,
				0
			]
		}
	],
	"materials":[
		{
			"doubleSided":true,
			"name":"Material.001",
			"pbrMetallicRoughness":{
				"metallicFactor":0,
				"roughnessFactor":0.1785714328289032
			}
		}
	],
	"meshes":[
		{
			"name":"Curve.007",
			"primitives":[
				{
					"attributes":{
						"POSITION":0,
						"NORMAL":1,
						"TEXCOORD_0":2
					},
					"indices":3,
					"material":0
				}
			]
		}
	],
	"accessors":[
		{
			"bufferView":0,
			"componentType":5126,
			"count":829,
			"max":[
				0.06767505407333374,
				0.004816840402781963,
				-0.09727805852890015
			],
			"min":[
				0.06018088757991791,
				5.845519068792271e-10,
				-0.11097705364227295
			],
			"type":"VEC3"
		},
		{
			"bufferView":1,
			"componentType":5126,
			"count":829,
			"type":"VEC3"
		},
		{
			"bufferView":2,
			"componentType":5126,
			"count":829,
			"type":"VEC2"
		},
		{
			"bufferView":3,
			"componentType":5123,
			"count":1716,
			"type":"SCALAR"
		}
	],
	"bufferViews":[
		{
			"buffer":0,
			"byteLength":9948,
			"byteOffset":0,
			"target":34962
		},
		{
			"buffer":0,
			"byteLength":9948,
			"byteOffset":9948,
			"target":34962
		},
		{
			"buffer":0,
			"byteLength":6632,
			"byteOffset":19896,
			"target":34962
		},
		{
			"buffer":0,
			"byteLength":3432,
			"byteOffset":26528,
			"target":34963
		}
	],
	"buffers":[
		{
			"byteLength":29960,
			"uri":"data:application/octet-stream;base64,"
		}
	]
}
