{
	"asset":{
		"generator":"Khronos glTF Blender I/O v3.6.27",
		"version":"2.0"
	},
	"extensionsUsed":[
		"KHR_materials_specular",
		"KHR_materials_ior"
	],
	"scene":0,
	"scenes":[
		{
			"name":"Scene",
			"nodes":[
				0,
				1,
				2
			]
		}
	],
	"nodes":[
		{
			"mesh":0,
			"name":"L EYE.004",
			"rotation":[
				-0.09315481781959534,
				-0.4719654619693756,
				-0.35689881443977356,
				0.8007460236549377
			],
			"scale":[
				0.28030121326446533,
				0.28030121326446533,
				0.2803012430667877
			],
			"translation":[
				0.01603984832763672,
				-1.117816686630249,
				1.5266692638397217
			]
		},
		{
			"mesh":1,
			"name":"L EYE.006",
			"rotation":[
				-0.06519223749637604,
				-0.6508572697639465,
				-0.3680519461631775,
				0.6608120203018188
			],
			"scale":[
				0.2803012430667877,
				0.28030121326446533,
				0.28030121326446533
			],
			"translation":[
				0.6192589998245239,
				-1.016208529472351,
				1.5354198217391968
			]
		},
		{
			"mesh":2,
			"name":"BODY.002",
			"scale":[
				0.6628470420837402,
				0.6628470420837402,
				0.6628470420837402
			],
			"translation":[
				0.2705378532409668,
				-1.3029600381851196,
				0.7307122945785522
			]
		}
	],
	"animations":[
		{
			"channels":[
				{
					"sampler":0,
					"target":{
						"node":2,
						"path":"translation"
					}
				},
				{
					"sampler":1,
					"target":{
						"node":2,
						"path":"rotation"
					}
				},
				{
					"sampler":2,
					"target":{
						"node":2,
						"path":"scale"
					}
				}
			],
			"name":"BODY.002Action.001",
			"samplers":[
				{
					"input":11,
					"interpolation":"STEP",
					"output":12
				},
				{
					"input":11,
					"interpolation":"STEP",
					"output":13
				},
				{
					"input":11,
					"interpolation":"STEP",
					"output":14
				}
			]
		},
		{
			"channels":[
				{
					"sampler":0,
					"target":{
						"node":0,
						"path":"translation"
					}
				},
				{
					"sampler":1,
					"target":{
						"node":0,
						"path":"rotation"
					}
				},
				{
					"sampler":2,
					"target":{
						"node":0,
						"path":"scale"
					}
				}
			],
			"name":"L EYE.004Action",
			"samplers":[
				{
					"input":11,
					"interpolation":"STEP",
					"output":15
				},
				{
					"input":16,
					"interpolation":"LINEAR",
					"output":17
				},
				{
					"input":11,
					"interpolation":"STEP",
					"output":18
				}
			]
		},
		{
			"channels":[
				{
					"sampler":0,
					"target":{
						"node":1,
						"path":"translation"
					}
				},
				{
					"sampler":1,
					"target":{
						"node":1,
						"path":"rotation"
					}
				},
				{
					"sampler":2,
					"target":{
						"node":1,
						"path":"scale"
					}
				}
			],
			"name":"L EYE.006Action",
			"samplers":[
				{
					"input":11,
					"interpolation":"STEP",
					"output":19
				},
				{
					"input":16,
					"interpolation":"LINEAR",
					"output":20
				},
				{
					"input":11,
					"interpolation":"LINEAR",
					"output":21
				}
			]
		}
	],
	"materials":[
		{
			"doubleSided":true,
			"name":"EYEBALL",
			"pbrMetallicRoughness":{
				"baseColorTexture":{
					"index":0
				},
				"metallicFactor":0,
				"roughnessFactor":0.0928143858909607
			}
		},
		{
			"doubleSided":true,
			"extensions":{
				"KHR_materials_specular":{
					"specularColorFactor":[
						1.0436813753242646,
						1.0436813753242646,
						1.0436813753242646
					]
				},
				"KHR_materials_ior":{
					"ior":1.4500000476837158
				}
			},
			"name":"Material.005",
			"pbrMetallicRoughness":{
				"baseColorFactor":[
					0.020632149651646614,
					0,
					0.6559232473373413,
					1
				],
				"metallicFactor":0,
				"roughnessFactor":0.26047903299331665
			}
		}
	],
	"meshes":[
		{
			"name":"Sphere.002",
			"primitives":[
				{
					"attributes":{
						"POSITION":0,
						"NORMAL":1,
						"TEXCOORD_0":2
					},
					"indices":3,
					"material":0
				}
			]
		},
		{
			"name":"Sphere.004",
			"primitives":[
				{
					"attributes":{
						"POSITION":4,
						"NORMAL":5,
						"TEXCOORD_0":6
					},
					"indices":3,
					"material":0
				}
			]
		},
		{
			"name":"Sphere.001",
			"primitives":[
				{
					"attributes":{
						"POSITION":7,
						"NORMAL":8,
						"TEXCOORD_0":9
					},
					"indices":10,
					"material":1
				}
			]
		}
	],
	"textures":[
		{
			"sampler":0,
			"source":0
		}
	],
	"images":[
		{
			"bufferView":4,
			"mimeType":"image/png",
			"name":"LEFT"
		}
	],
	"accessors":[
		{
			"bufferView":0,
			"componentType":5126,
			"count":596,
			"max":[
				0.9999997019767761,
				1,
				0.9999993443489075
			],
			"min":[
				-0.9999990463256836,
				-1,
				-1
			],
			"type":"VEC3"
		},
		{
			"bufferView":1,
			"componentType":5126,
			"count":596,
			"type":"VEC3"
		},
		{
			"bufferView":2,
			"componentType":5126,
			"count":596,
			"type":"VEC2"
		},
		{
			"bufferView":3,
			"componentType":5123,
			"count":2880,
			"type":"SCALAR"
		},
		{
			"bufferView":5,
			"componentType":5126,
			"count":596,
			"max":[
				0.9999997019767761,
				1,
				0.9999993443489075
			],
			"min":[
				-0.9999990463256836,
				-1,
				-1
			],
			"type":"VEC3"
		},
		{
			"bufferView":6,
			"componentType":5126,
			"count":596,
			"type":"VEC3"
		},
		{
			"bufferView":7,
			"componentType":5126,
			"count":596,
			"type":"VEC2"
		},
		{
			"bufferView":8,
			"componentType":5126,
			"count":9588,
			"max":[
				1.4754221439361572,
				1.3462857007980347,
				1.3251087665557861
			],
			"min":[
				-1.3610198497772217,
				-1.4354227781295776,
				-0.9868746995925903
			],
			"type":"VEC3"
		},
		{
			"bufferView":9,
			"componentType":5126,
			"count":9588,
			"type":"VEC3"
		},
		{
			"bufferView":10,
			"componentType":5126,
			"count":9588,
			"type":"VEC2"
		},
		{
			"bufferView":11,
			"componentType":5123,
			"count":52128,
			"type":"SCALAR"
		},
		{
			"bufferView":12,
			"componentType":5126,
			"count":2,
			"max":[
				3.5416666666666665
			],
			"min":[
				0.041666666666666664
			],
			"type":"SCALAR"
		},
		{
			"bufferView":13,
			"componentType":5126,
			"count":2,
			"type":"VEC3"
		},
		{
			"bufferView":14,
			"componentType":5126,
			"count":2,
			"type":"VEC4"
		},
		{
			"bufferView":15,
			"componentType":5126,
			"count":2,
			"type":"VEC3"
		},
		{
			"bufferView":16,
			"componentType":5126,
			"count":2,
			"type":"VEC3"
		},
		{
			"bufferView":17,
			"componentType":5126,
			"count":85,
			"max":[
				3.5416666666666665
			],
			"min":[
				0.041666666666666664
			],
			"type":"SCALAR"
		},
		{
			"bufferView":18,
			"componentType":5126,
			"count":85,
			"type":"VEC4"
		},
		{
			"bufferView":19,
			"componentType":5126,
			"count":2,
			"type":"VEC3"
		},
		{
			"bufferView":20,
			"componentType":5126,
			"count":2,
			"type":"VEC3"
		},
		{
			"bufferView":21,
			"componentType":5126,
			"count":85,
			"type":"VEC4"
		},
		{
			"bufferView":22,
			"componentType":5126,
			"count":2,
			"type":"VEC3"
		}
	],
	"bufferViews":[
		{
			"buffer":0,
			"byteLength":7152,
			"byteOffset":0,
			"target":34962
		},
		{
			"buffer":0,
			"byteLength":7152,
			"byteOffset":7152,
			"target":34962
		},
		{
			"buffer":0,
			"byteLength":4768,
			"byteOffset":14304,
			"target":34962
		},
		{
			"buffer":0,
			"byteLength":5760,
			"byteOffset":19072,
			"target":34963
		},
		{
			"buffer":0,
			"byteLength":115636,
			"byteOffset":24832
		},
		{
			"buffer":0,
			"byteLength":7152,
			"byteOffset":140468,
			"target":34962
		},
		{
			"buffer":0,
			"byteLength":7152,
			"byteOffset":147620,
			"target":34962
		},
		{
			"buffer":0,
			"byteLength":4768,
			"byteOffset":154772,
			"target":34962
		},
		{
			"buffer":0,
			"byteLength":115056,
			"byteOffset":159540,
			"target":34962
		},
		{
			"buffer":0,
			"byteLength":115056,
			"byteOffset":274596,
			"target":34962
		},
		{
			"buffer":0,
			"byteLength":76704,
			"byteOffset":389652,
			"target":34962
		},
		{
			"buffer":0,
			"byteLength":104256,
			"byteOffset":466356,
			"target":34963
		},
		{
			"buffer":0,
			"byteLength":8,
			"byteOffset":570612
		},
		{
			"buffer":0,
			"byteLength":24,
			"byteOffset":570620
		},
		{
			"buffer":0,
			"byteLength":32,
			"byteOffset":570644
		},
		{
			"buffer":0,
			"byteLength":24,
			"byteOffset":570676
		},
		{
			"buffer":0,
			"byteLength":24,
			"byteOffset":570700
		},
		{
			"buffer":0,
			"byteLength":340,
			"byteOffset":570724
		},
		{
			"buffer":0,
			"byteLength":1360,
			"byteOffset":571064
		},
		{
			"buffer":0,
			"byteLength":24,
			"byteOffset":572424
		},
		{
			"buffer":0,
			"byteLength":24,
			"byteOffset":572448
		},
		{
			"buffer":0,
			"byteLength":1360,
			"byteOffset":572472
		},
		{
			"buffer":0,
			"byteLength":24,
			"byteOffset":573832
		}
	],
	"samplers":[
		{
			"magFilter":9729,
			"minFilter":9987
		}
	],
	"buffers":[
		{
			"byteLength":573856,
			"uri":"data:application/octet-stream;base64,"
		}
	]
}
