{
	"asset":{
		"generator":"Khronos glTF Blender I/O v3.6.27",
		"version":"2.0"
	},
	"scene":0,
	"scenes":[
		{
			"name":"Scene",
			"nodes":[
				0
			]
		}
	],
	"nodes":[
		{
			"mesh":0,
			"name":"Curve.009",
			"rotation":[
				0.7071068286895752,
				0,
				0,
				0.7071068286895752
			],
			"scale":[
				1.5005275011062622,
				1.5005275011062622,
				1.5005275011062622
			],
			"translation":[
				-0.7660797238349915,
				0.020066529512405396,
				0
			]
		}
	],
	"materials":[
		{
			"doubleSided":true,
			"name":"Material.001",
			"pbrMetallicRoughness":{
				"metallicFactor":0,
				"roughnessFactor":0.1785714328289032
			}
		}
	],
	"meshes":[
		{
			"name":"Curve.008",
			"primitives":[
				{
					"attributes":{
						"POSITION":0,
						"NORMAL":1,
						"TEXCOORD_0":2
					},
					"indices":3,
					"material":0
				}
			]
		}
	],
	"accessors":[
		{
			"bufferView":0,
			"componentType":5126,
			"count":1922,
			"max":[
				0.0961947962641716,
				0.004816839937120676,
				-0.09657875448465347
			],
			"min":[
				0.0845775455236435,
				0,
				-0.11112896353006363
			],
			"type":"VEC3"
		},
		{
			"bufferView":1,
			"componentType":5126,
			"count":1922,
			"type":"VEC3"
		},
		{
			"bufferView":2,
			"componentType":5126,
			"count":1922,
			"type":"VEC2"
		},
		{
			"bufferView":3,
			"componentType":5123,
			"count":3900,
			"type":"SCALAR"
		}
	],
	"bufferViews":[
		{
			"buffer":0,
			"byteLength":23064,
			"byteOffset":0,
			"target":34962
		},
		{
			"buffer":0,
			"byteLength":23064,
			"byteOffset":23064,
			"target":34962
		},
		{
			"buffer":0,
			"byteLength":15376,
			"byteOffset":46128,
			"target":34962
		},
		{
			"buffer":0,
			"byteLength":7800,
			"byteOffset":61504,
			"target":34963
		}
	],
	"buffers":[
		{
			"byteLength":69304,
			"uri":"data:application/octet-stream;base64,"
		}
	]
}
