{
	"asset":{
		"generator":"Khronos glTF Blender I/O v3.6.27",
		"version":"2.0"
	},
	"scene":0,
	"scenes":[
		{
			"name":"Scene",
			"nodes":[
				0
			]
		}
	],
	"nodes":[
		{
			"mesh":0,
			"name":"Curve.006",
			"rotation":[
				0.7071068286895752,
				0,
				0,
				0.7071068286895752
			],
			"scale":[
				1.5005275011062622,
				1.5005275011062622,
				1.5005275011062622
			],
			"translation":[
				-0.7660797238349915,
				0.020066529512405396,
				0
			]
		}
	],
	"materials":[
		{
			"doubleSided":true,
			"name":"Material.001",
			"pbrMetallicRoughness":{
				"metallicFactor":0,
				"roughnessFactor":0.1785714328289032
			}
		}
	],
	"meshes":[
		{
			"name":"Curve.005",
			"primitives":[
				{
					"attributes":{
						"POSITION":0,
						"NORMAL":1,
						"TEXCOORD_0":2
					},
					"indices":3,
					"material":0
				}
			]
		}
	],
	"accessors":[
		{
			"bufferView":0,
			"componentType":5126,
			"count":2083,
			"max":[
				0.007995419204235077,
				0.004816840402781963,
				-0.09738472104072571
			],
			"min":[
				-0.0074464306235313416,
				5.845519068792271e-10,
				-0.11087527871131897
			],
			"type":"VEC3"
		},
		{
			"bufferView":1,
			"componentType":5126,
			"count":2083,
			"type":"VEC3"
		},
		{
			"bufferView":2,
			"componentType":5126,
			"count":2083,
			"type":"VEC2"
		},
		{
			"bufferView":3,
			"componentType":5123,
			"count":4164,
			"type":"SCALAR"
		}
	],
	"bufferViews":[
		{
			"buffer":0,
			"byteLength":24996,
			"byteOffset":0,
			"target":34962
		},
		{
			"buffer":0,
			"byteLength":24996,
			"byteOffset":24996,
			"target":34962
		},
		{
			"buffer":0,
			"byteLength":16664,
			"byteOffset":49992,
			"target":34962
		},
		{
			"buffer":0,
			"byteLength":8328,
			"byteOffset":66656,
			"target":34963
		}
	],
	"buffers":[
		{
			"byteLength":74984,
			"uri":"data:application/octet-stream;base64,"
		}
	]
}
