{
	"asset":{
		"generator":"Khronos glTF Blender I/O v3.6.27",
		"version":"2.0"
	},
	"scene":0,
	"scenes":[
		{
			"name":"Scene",
			"nodes":[
				0
			]
		}
	],
	"nodes":[
		{
			"mesh":0,
			"name":"Curve.005",
			"rotation":[
				0.7071068286895752,
				0,
				0,
				0.7071068286895752
			],
			"scale":[
				1.5005275011062622,
				1.5005275011062622,
				1.5005275011062622
			],
			"translation":[
				-0.7660797238349915,
				0.020066529512405396,
				0
			]
		}
	],
	"materials":[
		{
			"doubleSided":true,
			"name":"Material.001",
			"pbrMetallicRoughness":{
				"metallicFactor":0,
				"roughnessFactor":0.1785714328289032
			}
		}
	],
	"meshes":[
		{
			"name":"Curve.004",
			"primitives":[
				{
					"attributes":{
						"POSITION":0,
						"NORMAL":1,
						"TEXCOORD_0":2
					},
					"indices":3,
					"material":0
				}
			]
		}
	],
	"accessors":[
		{
			"bufferView":0,
			"componentType":5126,
			"count":1475,
			"max":[
				-0.025220543146133423,
				0.004816840402781963,
				-0.09741908311843872
			],
			"min":[
				-0.03763420879840851,
				5.845519068792271e-10,
				-0.11105714738368988
			],
			"type":"VEC3"
		},
		{
			"bufferView":1,
			"componentType":5126,
			"count":1475,
			"type":"VEC3"
		},
		{
			"bufferView":2,
			"componentType":5126,
			"count":1475,
			"type":"VEC2"
		},
		{
			"bufferView":3,
			"componentType":5123,
			"count":3024,
			"type":"SCALAR"
		}
	],
	"bufferViews":[
		{
			"buffer":0,
			"byteLength":17700,
			"byteOffset":0,
			"target":34962
		},
		{
			"buffer":0,
			"byteLength":17700,
			"byteOffset":17700,
			"target":34962
		},
		{
			"buffer":0,
			"byteLength":11800,
			"byteOffset":35400,
			"target":34962
		},
		{
			"buffer":0,
			"byteLength":6048,
			"byteOffset":47200,
			"target":34963
		}
	],
	"buffers":[
		{
			"byteLength":53248,
			"uri":"data:application/octet-stream;base64,"
		}
	]
}
