{
	"asset":{
		"generator":"Khronos glTF Blender I/O v3.6.27",
		"version":"2.0"
	},
	"extensionsUsed":[
		"KHR_materials_specular",
		"KHR_materials_ior"
	],
	"scene":0,
	"scenes":[
		{
			"name":"Scene",
			"nodes":[
				0,
				1,
				2,
				3,
				4,
				5,
				6,
				7,
				8,
				9
			]
		}
	],
	"nodes":[
		{
			"mesh":0,
			"name":"Curve.012",
			"rotation":[
				0.7071068286895752,
				0,
				0,
				0.7071068286895752
			],
			"scale":[
				1.0779600143432617,
				1.0779600143432617,
				1.0779600143432617
			],
			"translation":[
				-1.285616159439087,
				0.058561086654663086,
				0.01597902923822403
			]
		},
		{
			"mesh":1,
			"name":"Curve.013",
			"rotation":[
				0.7071068286895752,
				0,
				0,
				0.7071068286895752
			],
			"scale":[
				1.0779600143432617,
				1.0779600143432617,
				1.0779600143432617
			],
			"translation":[
				-1.1363672018051147,
				0.1265607625246048,
				0.015978951007127762
			]
		},
		{
			"mesh":2,
			"name":"Curve.014",
			"rotation":[
				0.7071068286895752,
				0,
				0,
				0.7071068286895752
			],
			"scale":[
				1.4100910425186157,
				1.4100910425186157,
				1.4100910425186157
			],
			"translation":[
				-1.7894102334976196,
				0.0774548202753067,
				0.015978943556547165
			]
		},
		{
			"mesh":3,
			"name":"Curve.015",
			"rotation":[
				0.7071068286895752,
				0,
				0,
				0.7071068286895752
			],
			"scale":[
				1.0779600143432617,
				1.0779600143432617,
				1.0779600143432617
			],
			"translation":[
				-1.5767979621887207,
				0.06819645315408707,
				0.015979032963514328
			]
		},
		{
			"mesh":4,
			"name":"Curve.017",
			"rotation":[
				0.7071068286895752,
				0,
				0,
				0.7071068286895752
			],
			"scale":[
				1.0779600143432617,
				1.0779600143432617,
				1.0779600143432617
			],
			"translation":[
				-1.4257298707962036,
				0.08749113976955414,
				0.015979008749127388
			]
		},
		{
			"mesh":5,
			"name":"Curve.018",
			"rotation":[
				0.7071068286895752,
				0,
				0,
				0.7071068286895752
			],
			"scale":[
				1.0779600143432617,
				1.0779600143432617,
				1.0779600143432617
			],
			"translation":[
				-1.5036616325378418,
				0.07496211677789688,
				0.015978986397385597
			]
		},
		{
			"mesh":6,
			"name":"Curve.019",
			"rotation":[
				0.7071068286895752,
				0,
				0,
				0.7071068286895752
			],
			"scale":[
				1.0779600143432617,
				1.0779600143432617,
				1.0779600143432617
			],
			"translation":[
				-1.2122212648391724,
				0.10557013005018234,
				0.015979016199707985
			]
		},
		{
			"mesh":7,
			"name":"Curve.020",
			"rotation":[
				0.7071068286895752,
				0,
				0,
				0.7071068286895752
			],
			"scale":[
				1.069969892501831,
				1.069969892501831,
				1.069969892501831
			],
			"translation":[
				-1.7012234926223755,
				0.06120188534259796,
				0.015978984534740448
			]
		},
		{
			"mesh":8,
			"name":"Curve.021",
			"rotation":[
				0.7071068286895752,
				0,
				0,
				0.7071068286895752
			],
			"scale":[
				1.0779600143432617,
				1.0779600143432617,
				1.0779600143432617
			],
			"translation":[
				-1.1589527130126953,
				0.04917648434638977,
				0.015978947281837463
			]
		},
		{
			"mesh":9,
			"name":"Curve.016",
			"rotation":[
				0.7071068286895752,
				0,
				0,
				0.7071068286895752
			],
			"scale":[
				1.0779600143432617,
				1.0779600143432617,
				1.0779600143432617
			],
			"translation":[
				-1.3469997644424438,
				0.07719539850950241,
				0.01597902923822403
			]
		}
	],
	"materials":[
		{
			"doubleSided":true,
			"extensions":{
				"KHR_materials_specular":{
					"specularColorFactor":[
						0.9598352383542733,
						0.9598352383542733,
						0.9598352383542733
					]
				},
				"KHR_materials_ior":{
					"ior":1.4500000476837158
				}
			},
			"name":"BLK",
			"pbrMetallicRoughness":{
				"baseColorFactor":[
					0,
					0,
					0,
					1
				],
				"metallicFactor":0,
				"roughnessFactor":0.0476190447807312
			}
		}
	],
	"meshes":[
		{
			"name":"Curve.041",
			"primitives":[
				{
					"attributes":{
						"POSITION":0,
						"NORMAL":1,
						"TEXCOORD_0":2
					},
					"indices":3,
					"material":0
				}
			]
		},
		{
			"name":"Curve.042",
			"primitives":[
				{
					"attributes":{
						"POSITION":4,
						"NORMAL":5,
						"TEXCOORD_0":6
					},
					"indices":7,
					"material":0
				}
			]
		},
		{
			"name":"Curve.043",
			"primitives":[
				{
					"attributes":{
						"POSITION":8,
						"NORMAL":9,
						"TEXCOORD_0":10
					},
					"indices":11,
					"material":0
				}
			]
		},
		{
			"name":"Curve.044",
			"primitives":[
				{
					"attributes":{
						"POSITION":12,
						"NORMAL":13,
						"TEXCOORD_0":14
					},
					"indices":15,
					"material":0
				}
			]
		},
		{
			"name":"Curve.046",
			"primitives":[
				{
					"attributes":{
						"POSITION":16,
						"NORMAL":17,
						"TEXCOORD_0":18
					},
					"indices":19,
					"material":0
				}
			]
		},
		{
			"name":"Curve.047",
			"primitives":[
				{
					"attributes":{
						"POSITION":20,
						"NORMAL":21,
						"TEXCOORD_0":22
					},
					"indices":23,
					"material":0
				}
			]
		},
		{
			"name":"Curve.048",
			"primitives":[
				{
					"attributes":{
						"POSITION":24,
						"NORMAL":25,
						"TEXCOORD_0":26
					},
					"indices":27,
					"material":0
				}
			]
		},
		{
			"name":"Curve.049",
			"primitives":[
				{
					"attributes":{
						"POSITION":28,
						"NORMAL":29,
						"TEXCOORD_0":30
					},
					"indices":31,
					"material":0
				}
			]
		},
		{
			"name":"Curve.050",
			"primitives":[
				{
					"attributes":{
						"POSITION":32,
						"NORMAL":33,
						"TEXCOORD_0":34
					},
					"indices":35,
					"material":0
				}
			]
		},
		{
			"name":"Curve.056",
			"primitives":[
				{
					"attributes":{
						"POSITION":36,
						"NORMAL":37,
						"TEXCOORD_0":38
					},
					"indices":39,
					"material":0
				}
			]
		}
	],
	"accessors":[
		{
			"bufferView":0,
			"componentType":5126,
			"count":2197,
			"max":[
				0.03476154804229736,
				0.014823253266513348,
				0.0544821172952652
			],
			"min":[
				-0.034924089908599854,
				-0.01482339482754469,
				-0.05330367386341095
			],
			"type":"VEC3"
		},
		{
			"bufferView":1,
			"componentType":5126,
			"count":2197,
			"type":"VEC3"
		},
		{
			"bufferView":2,
			"componentType":5126,
			"count":2197,
			"type":"VEC2"
		},
		{
			"bufferView":3,
			"componentType":5123,
			"count":4428,
			"type":"SCALAR"
		},
		{
			"bufferView":4,
			"componentType":5126,
			"count":602,
			"max":[
				0.023325800895690918,
				0.014823329634964466,
				0.048461444675922394
			],
			"min":[
				-0.020875543355941772,
				-0.01482331845909357,
				-0.04555334895849228
			],
			"type":"VEC3"
		},
		{
			"bufferView":5,
			"componentType":5126,
			"count":602,
			"type":"VEC3"
		},
		{
			"bufferView":6,
			"componentType":5126,
			"count":602,
			"type":"VEC2"
		},
		{
			"bufferView":7,
			"componentType":5123,
			"count":1284,
			"type":"SCALAR"
		},
		{
			"bufferView":8,
			"componentType":5126,
			"count":1893,
			"max":[
				0.050962239503860474,
				0.011331872083246708,
				0.055303484201431274
			],
			"min":[
				-0.054142192006111145,
				-0.01133184414356947,
				-0.053834930062294006
			],
			"type":"VEC3"
		},
		{
			"bufferView":9,
			"componentType":5126,
			"count":1893,
			"type":"VEC3"
		},
		{
			"bufferView":10,
			"componentType":5126,
			"count":1893,
			"type":"VEC2"
		},
		{
			"bufferView":11,
			"componentType":5123,
			"count":3888,
			"type":"SCALAR"
		},
		{
			"bufferView":12,
			"componentType":5126,
			"count":2312,
			"max":[
				0.03921618312597275,
				0.014823250472545624,
				0.05567178502678871
			],
			"min":[
				-0.052510593086481094,
				-0.014823397621512413,
				-0.06661228835582733
			],
			"type":"VEC3"
		},
		{
			"bufferView":13,
			"componentType":5126,
			"count":2312,
			"type":"VEC3"
		},
		{
			"bufferView":14,
			"componentType":5126,
			"count":2312,
			"type":"VEC2"
		},
		{
			"bufferView":15,
			"componentType":5123,
			"count":4752,
			"type":"SCALAR"
		},
		{
			"bufferView":16,
			"componentType":5126,
			"count":1415,
			"max":[
				0.04384331405162811,
				0.01482327375560999,
				0.02973388135433197
			],
			"min":[
				-0.05397714674472809,
				-0.014823374338448048,
				-0.03768070042133331
			],
			"type":"VEC3"
		},
		{
			"bufferView":17,
			"componentType":5126,
			"count":1415,
			"type":"VEC3"
		},
		{
			"bufferView":18,
			"componentType":5126,
			"count":1415,
			"type":"VEC2"
		},
		{
			"bufferView":19,
			"componentType":5123,
			"count":2880,
			"type":"SCALAR"
		},
		{
			"bufferView":20,
			"componentType":5126,
			"count":1073,
			"max":[
				0.036913178861141205,
				0.01482329424470663,
				0.050562113523483276
			],
			"min":[
				-0.03165251016616821,
				-0.014823353849351406,
				-0.06336326897144318
			],
			"type":"VEC3"
		},
		{
			"bufferView":21,
			"componentType":5126,
			"count":1073,
			"type":"VEC3"
		},
		{
			"bufferView":22,
			"componentType":5126,
			"count":1073,
			"type":"VEC2"
		},
		{
			"bufferView":23,
			"componentType":5123,
			"count":2160,
			"type":"SCALAR"
		},
		{
			"bufferView":24,
			"componentType":5126,
			"count":1705,
			"max":[
				0.054237157106399536,
				0.014823267236351967,
				0.06423173099756241
			],
			"min":[
				-0.04644152522087097,
				-0.01482338085770607,
				-0.05196724832057953
			],
			"type":"VEC3"
		},
		{
			"bufferView":25,
			"componentType":5126,
			"count":1705,
			"type":"VEC3"
		},
		{
			"bufferView":26,
			"componentType":5126,
			"count":1705,
			"type":"VEC2"
		},
		{
			"bufferView":27,
			"componentType":5123,
			"count":3420,
			"type":"SCALAR"
		},
		{
			"bufferView":28,
			"componentType":5126,
			"count":860,
			"max":[
				0.02845543622970581,
				0.014933998696506023,
				0.050139084458351135
			],
			"min":[
				-0.02513587474822998,
				-0.014934041537344456,
				-0.058543309569358826
			],
			"type":"VEC3"
		},
		{
			"bufferView":29,
			"componentType":5126,
			"count":860,
			"type":"VEC3"
		},
		{
			"bufferView":30,
			"componentType":5126,
			"count":860,
			"type":"VEC2"
		},
		{
			"bufferView":31,
			"componentType":5123,
			"count":1728,
			"type":"SCALAR"
		},
		{
			"bufferView":32,
			"componentType":5126,
			"count":722,
			"max":[
				0.015352994203567505,
				0.014823329634964466,
				0.022632770240306854
			],
			"min":[
				-0.013838112354278564,
				-0.01482331845909357,
				-0.01890283077955246
			],
			"type":"VEC3"
		},
		{
			"bufferView":33,
			"componentType":5126,
			"count":722,
			"type":"VEC3"
		},
		{
			"bufferView":34,
			"componentType":5126,
			"count":722,
			"type":"VEC2"
		},
		{
			"bufferView":35,
			"componentType":5123,
			"count":1440,
			"type":"SCALAR"
		},
		{
			"bufferView":36,
			"componentType":5126,
			"count":2197,
			"max":[
				0.03476154804229736,
				0.014823253266513348,
				0.0544821172952652
			],
			"min":[
				-0.034924089908599854,
				-0.01482339482754469,
				-0.05330367386341095
			],
			"type":"VEC3"
		},
		{
			"bufferView":37,
			"componentType":5126,
			"count":2197,
			"type":"VEC3"
		},
		{
			"bufferView":38,
			"componentType":5126,
			"count":2197,
			"type":"VEC2"
		},
		{
			"bufferView":39,
			"componentType":5123,
			"count":4428,
			"type":"SCALAR"
		}
	],
	"bufferViews":[
		{
			"buffer":0,
			"byteLength":26364,
			"byteOffset":0,
			"target":34962
		},
		{
			"buffer":0,
			"byteLength":26364,
			"byteOffset":26364,
			"target":34962
		},
		{
			"buffer":0,
			"byteLength":17576,
			"byteOffset":52728,
			"target":34962
		},
		{
			"buffer":0,
			"byteLength":8856,
			"byteOffset":70304,
			"target":34963
		},
		{
			"buffer":0,
			"byteLength":7224,
			"byteOffset":79160,
			"target":34962
		},
		{
			"buffer":0,
			"byteLength":7224,
			"byteOffset":86384,
			"target":34962
		},
		{
			"buffer":0,
			"byteLength":4816,
			"byteOffset":93608,
			"target":34962
		},
		{
			"buffer":0,
			"byteLength":2568,
			"byteOffset":98424,
			"target":34963
		},
		{
			"buffer":0,
			"byteLength":22716,
			"byteOffset":100992,
			"target":34962
		},
		{
			"buffer":0,
			"byteLength":22716,
			"byteOffset":123708,
			"target":34962
		},
		{
			"buffer":0,
			"byteLength":15144,
			"byteOffset":146424,
			"target":34962
		},
		{
			"buffer":0,
			"byteLength":7776,
			"byteOffset":161568,
			"target":34963
		},
		{
			"buffer":0,
			"byteLength":27744,
			"byteOffset":169344,
			"target":34962
		},
		{
			"buffer":0,
			"byteLength":27744,
			"byteOffset":197088,
			"target":34962
		},
		{
			"buffer":0,
			"byteLength":18496,
			"byteOffset":224832,
			"target":34962
		},
		{
			"buffer":0,
			"byteLength":9504,
			"byteOffset":243328,
			"target":34963
		},
		{
			"buffer":0,
			"byteLength":16980,
			"byteOffset":252832,
			"target":34962
		},
		{
			"buffer":0,
			"byteLength":16980,
			"byteOffset":269812,
			"target":34962
		},
		{
			"buffer":0,
			"byteLength":11320,
			"byteOffset":286792,
			"target":34962
		},
		{
			"buffer":0,
			"byteLength":5760,
			"byteOffset":298112,
			"target":34963
		},
		{
			"buffer":0,
			"byteLength":12876,
			"byteOffset":303872,
			"target":34962
		},
		{
			"buffer":0,
			"byteLength":12876,
			"byteOffset":316748,
			"target":34962
		},
		{
			"buffer":0,
			"byteLength":8584,
			"byteOffset":329624,
			"target":34962
		},
		{
			"buffer":0,
			"byteLength":4320,
			"byteOffset":338208,
			"target":34963
		},
		{
			"buffer":0,
			"byteLength":20460,
			"byteOffset":342528,
			"target":34962
		},
		{
			"buffer":0,
			"byteLength":20460,
			"byteOffset":362988,
			"target":34962
		},
		{
			"buffer":0,
			"byteLength":13640,
			"byteOffset":383448,
			"target":34962
		},
		{
			"buffer":0,
			"byteLength":6840,
			"byteOffset":397088,
			"target":34963
		},
		{
			"buffer":0,
			"byteLength":10320,
			"byteOffset":403928,
			"target":34962
		},
		{
			"buffer":0,
			"byteLength":10320,
			"byteOffset":414248,
			"target":34962
		},
		{
			"buffer":0,
			"byteLength":6880,
			"byteOffset":424568,
			"target":34962
		},
		{
			"buffer":0,
			"byteLength":3456,
			"byteOffset":431448,
			"target":34963
		},
		{
			"buffer":0,
			"byteLength":8664,
			"byteOffset":434904,
			"target":34962
		},
		{
			"buffer":0,
			"byteLength":8664,
			"byteOffset":443568,
			"target":34962
		},
		{
			"buffer":0,
			"byteLength":5776,
			"byteOffset":452232,
			"target":34962
		},
		{
			"buffer":0,
			"byteLength":2880,
			"byteOffset":458008,
			"target":34963
		},
		{
			"buffer":0,
			"byteLength":26364,
			"byteOffset":460888,
			"target":34962
		},
		{
			"buffer":0,
			"byteLength":26364,
			"byteOffset":487252,
			"target":34962
		},
		{
			"buffer":0,
			"byteLength":17576,
			"byteOffset":513616,
			"target":34962
		},
		{
			"buffer":0,
			"byteLength":8856,
			"byteOffset":531192,
			"target":34963
		}
	],
	"buffers":[
		{
			"byteLength":540048,
			"uri":"data:application/octet-stream;base64,"
		}
	]
}
