{
	"asset":{
		"generator":"Khronos glTF Blender I/O v3.6.27",
		"version":"2.0"
	},
	"extensionsUsed":[
		"KHR_materials_specular",
		"KHR_materials_ior"
	],
	"scene":0,
	"scenes":[
		{
			"name":"Scene",
			"nodes":[
				0
			]
		}
	],
	"nodes":[
		{
			"mesh":0,
			"name":"Curve.012",
			"rotation":[
				0.7071068286895752,
				0,
				0,
				0.7071068286895752
			],
			"scale":[
				1.0779600143432617,
				1.0779600143432617,
				1.0779600143432617
			],
			"translation":[
				-1.285616159439087,
				0.058561086654663086,
				0.01597902923822403
			]
		}
	],
	"materials":[
		{
			"doubleSided":true,
			"extensions":{
				"KHR_materials_specular":{
					"specularColorFactor":[
						1.0436819406999776,
						1.0436819406999776,
						1.0436819406999776
					]
				},
				"KHR_materials_ior":{
					"ior":1.4500000476837158
				}
			},
			"name":"Material.005",
			"pbrMetallicRoughness":{
				"baseColorFactor":[
					0.0025677871890366077,
					0.24955840408802032,
					0.010713361203670502,
					1
				],
				"metallicFactor":0,
				"roughnessFactor":0.26047903299331665
			}
		}
	],
	"meshes":[
		{
			"name":"Curve.041",
			"primitives":[
				{
					"attributes":{
						"POSITION":0,
						"NORMAL":1,
						"TEXCOORD_0":2
					},
					"indices":3,
					"material":0
				}
			]
		}
	],
	"accessors":[
		{
			"bufferView":0,
			"componentType":5126,
			"count":2197,
			"max":[
				0.03476154804229736,
				0.014823253266513348,
				0.0544821172952652
			],
			"min":[
				-0.034924089908599854,
				-0.01482339482754469,
				-0.05330367386341095
			],
			"type":"VEC3"
		},
		{
			"bufferView":1,
			"componentType":5126,
			"count":2197,
			"type":"VEC3"
		},
		{
			"bufferView":2,
			"componentType":5126,
			"count":2197,
			"type":"VEC2"
		},
		{
			"bufferView":3,
			"componentType":5123,
			"count":4428,
			"type":"SCALAR"
		}
	],
	"bufferViews":[
		{
			"buffer":0,
			"byteLength":26364,
			"byteOffset":0,
			"target":34962
		},
		{
			"buffer":0,
			"byteLength":26364,
			"byteOffset":26364,
			"target":34962
		},
		{
			"buffer":0,
			"byteLength":17576,
			"byteOffset":52728,
			"target":34962
		},
		{
			"buffer":0,
			"byteLength":8856,
			"byteOffset":70304,
			"target":34963
		}
	],
	"buffers":[
		{
			"byteLength":79160,
			"uri":"data:application/octet-stream;base64,"
		}
	]
}
