{
	"asset":{
		"generator":"Khronos glTF Blender I/O v3.6.27",
		"version":"2.0"
	},
	"scene":0,
	"scenes":[
		{
			"name":"Scene",
			"nodes":[
				0
			]
		}
	],
	"nodes":[
		{
			"mesh":0,
			"name":"Curve.018",
			"rotation":[
				0.7071068286895752,
				0,
				0,
				0.7071068286895752
			],
			"scale":[
				1.0779600143432617,
				1.0779600143432617,
				1.0779600143432617
			],
			"translation":[
				-1.5036616325378418,
				0.07496211677789688,
				0.015978986397385597
			]
		}
	],
	"materials":[
		{
			"doubleSided":true,
			"name":"Material.003",
			"pbrMetallicRoughness":{
				"baseColorFactor":[
					0.027699217200279236,
					0.45863860845565796,
					0.8000000715255737,
					1
				],
				"metallicFactor":0,
				"roughnessFactor":0.5
			}
		}
	],
	"meshes":[
		{
			"name":"Curve.047",
			"primitives":[
				{
					"attributes":{
						"POSITION":0,
						"NORMAL":1,
						"TEXCOORD_0":2
					},
					"indices":3,
					"material":0
				}
			]
		}
	],
	"accessors":[
		{
			"bufferView":0,
			"componentType":5126,
			"count":1073,
			"max":[
				0.036913178861141205,
				0.01482329424470663,
				0.050562113523483276
			],
			"min":[
				-0.03165251016616821,
				-0.014823353849351406,
				-0.06336326897144318
			],
			"type":"VEC3"
		},
		{
			"bufferView":1,
			"componentType":5126,
			"count":1073,
			"type":"VEC3"
		},
		{
			"bufferView":2,
			"componentType":5126,
			"count":1073,
			"type":"VEC2"
		},
		{
			"bufferView":3,
			"componentType":5123,
			"count":2160,
			"type":"SCALAR"
		}
	],
	"bufferViews":[
		{
			"buffer":0,
			"byteLength":12876,
			"byteOffset":0,
			"target":34962
		},
		{
			"buffer":0,
			"byteLength":12876,
			"byteOffset":12876,
			"target":34962
		},
		{
			"buffer":0,
			"byteLength":8584,
			"byteOffset":25752,
			"target":34962
		},
		{
			"buffer":0,
			"byteLength":4320,
			"byteOffset":34336,
			"target":34963
		}
	],
	"buffers":[
		{
			"byteLength":38656,
			"uri":"data:application/octet-stream;base64,"
		}
	]
}
