{
	"asset":{
		"generator":"Khronos glTF Blender I/O v3.6.27",
		"version":"2.0"
	},
	"scene":0,
	"scenes":[
		{
			"name":"Scene",
			"nodes":[
				0
			]
		}
	],
	"nodes":[
		{
			"mesh":0,
			"name":"Curve.019",
			"rotation":[
				0.7071068286895752,
				0,
				0,
				0.7071068286895752
			],
			"scale":[
				1.0779600143432617,
				1.0779600143432617,
				1.0779600143432617
			],
			"translation":[
				-1.2122212648391724,
				0.10557013005018234,
				0.015979016199707985
			]
		}
	],
	"materials":[
		{
			"doubleSided":true,
			"name":"Material.003",
			"pbrMetallicRoughness":{
				"baseColorFactor":[
					0.027699217200279236,
					0.45863860845565796,
					0.8000000715255737,
					1
				],
				"metallicFactor":0,
				"roughnessFactor":0.5
			}
		}
	],
	"meshes":[
		{
			"name":"Curve.048",
			"primitives":[
				{
					"attributes":{
						"POSITION":0,
						"NORMAL":1,
						"TEXCOORD_0":2
					},
					"indices":3,
					"material":0
				}
			]
		}
	],
	"accessors":[
		{
			"bufferView":0,
			"componentType":5126,
			"count":1705,
			"max":[
				0.054237157106399536,
				0.014823267236351967,
				0.06423173099756241
			],
			"min":[
				-0.04644152522087097,
				-0.01482338085770607,
				-0.05196724832057953
			],
			"type":"VEC3"
		},
		{
			"bufferView":1,
			"componentType":5126,
			"count":1705,
			"type":"VEC3"
		},
		{
			"bufferView":2,
			"componentType":5126,
			"count":1705,
			"type":"VEC2"
		},
		{
			"bufferView":3,
			"componentType":5123,
			"count":3420,
			"type":"SCALAR"
		}
	],
	"bufferViews":[
		{
			"buffer":0,
			"byteLength":20460,
			"byteOffset":0,
			"target":34962
		},
		{
			"buffer":0,
			"byteLength":20460,
			"byteOffset":20460,
			"target":34962
		},
		{
			"buffer":0,
			"byteLength":13640,
			"byteOffset":40920,
			"target":34962
		},
		{
			"buffer":0,
			"byteLength":6840,
			"byteOffset":54560,
			"target":34963
		}
	],
	"buffers":[
		{
			"byteLength":61400,
			"uri":"data:application/octet-stream;base64,"
		}
	]
}
