{
	"asset":{
		"generator":"Khronos glTF Blender I/O v3.6.27",
		"version":"2.0"
	},
	"scene":0,
	"scenes":[
		{
			"name":"Scene",
			"nodes":[
				0
			]
		}
	],
	"nodes":[
		{
			"mesh":0,
			"name":"Curve.017",
			"rotation":[
				0.7071068286895752,
				0,
				0,
				0.7071068286895752
			],
			"scale":[
				1.0779600143432617,
				1.0779600143432617,
				1.0779600143432617
			],
			"translation":[
				-1.4257298707962036,
				0.08749113976955414,
				0.015979008749127388
			]
		}
	],
	"materials":[
		{
			"doubleSided":true,
			"name":"Material.004",
			"pbrMetallicRoughness":{
				"baseColorFactor":[
					0.8000000715255737,
					0,
					0.002660370897501707,
					1
				],
				"metallicFactor":0,
				"roughnessFactor":0.5
			}
		}
	],
	"meshes":[
		{
			"name":"Curve.046",
			"primitives":[
				{
					"attributes":{
						"POSITION":0,
						"NORMAL":1,
						"TEXCOORD_0":2
					},
					"indices":3,
					"material":0
				}
			]
		}
	],
	"accessors":[
		{
			"bufferView":0,
			"componentType":5126,
			"count":1415,
			"max":[
				0.04384331405162811,
				0.01482327375560999,
				0.02973388135433197
			],
			"min":[
				-0.05397714674472809,
				-0.014823374338448048,
				-0.03768070042133331
			],
			"type":"VEC3"
		},
		{
			"bufferView":1,
			"componentType":5126,
			"count":1415,
			"type":"VEC3"
		},
		{
			"bufferView":2,
			"componentType":5126,
			"count":1415,
			"type":"VEC2"
		},
		{
			"bufferView":3,
			"componentType":5123,
			"count":2880,
			"type":"SCALAR"
		}
	],
	"bufferViews":[
		{
			"buffer":0,
			"byteLength":16980,
			"byteOffset":0,
			"target":34962
		},
		{
			"buffer":0,
			"byteLength":16980,
			"byteOffset":16980,
			"target":34962
		},
		{
			"buffer":0,
			"byteLength":11320,
			"byteOffset":33960,
			"target":34962
		},
		{
			"buffer":0,
			"byteLength":5760,
			"byteOffset":45280,
			"target":34963
		}
	],
	"buffers":[
		{
			"byteLength":51040,
			"uri":"data:application/octet-stream;base64,"
		}
	]
}
