{
	"asset":{
		"generator":"Khronos glTF Blender I/O v3.6.27",
		"version":"2.0"
	},
	"extensionsUsed":[
		"KHR_materials_specular",
		"KHR_materials_ior"
	],
	"scene":0,
	"scenes":[
		{
			"name":"Scene",
			"nodes":[
				0
			]
		}
	],
	"nodes":[
		{
			"mesh":0,
			"name":"Curve.015",
			"rotation":[
				0.7071068286895752,
				0,
				0,
				0.7071068286895752
			],
			"scale":[
				1.0779600143432617,
				1.0779600143432617,
				1.0779600143432617
			],
			"translation":[
				-1.5767979621887207,
				0.06819645315408707,
				0.015979032963514328
			]
		}
	],
	"materials":[
		{
			"doubleSided":true,
			"extensions":{
				"KHR_materials_specular":{
					"specularColorFactor":[
						1.0436819406999776,
						1.0436819406999776,
						1.0436819406999776
					]
				},
				"KHR_materials_ior":{
					"ior":1.4500000476837158
				}
			},
			"name":"Material.005",
			"pbrMetallicRoughness":{
				"baseColorFactor":[
					0.0025677871890366077,
					0.24955840408802032,
					0.010713361203670502,
					1
				],
				"metallicFactor":0,
				"roughnessFactor":0.26047903299331665
			}
		}
	],
	"meshes":[
		{
			"name":"Curve.044",
			"primitives":[
				{
					"attributes":{
						"POSITION":0,
						"NORMAL":1,
						"TEXCOORD_0":2
					},
					"indices":3,
					"material":0
				}
			]
		}
	],
	"accessors":[
		{
			"bufferView":0,
			"componentType":5126,
			"count":2312,
			"max":[
				0.03921618312597275,
				0.014823250472545624,
				0.05567178502678871
			],
			"min":[
				-0.052510593086481094,
				-0.014823397621512413,
				-0.06661228835582733
			],
			"type":"VEC3"
		},
		{
			"bufferView":1,
			"componentType":5126,
			"count":2312,
			"type":"VEC3"
		},
		{
			"bufferView":2,
			"componentType":5126,
			"count":2312,
			"type":"VEC2"
		},
		{
			"bufferView":3,
			"componentType":5123,
			"count":4752,
			"type":"SCALAR"
		}
	],
	"bufferViews":[
		{
			"buffer":0,
			"byteLength":27744,
			"byteOffset":0,
			"target":34962
		},
		{
			"buffer":0,
			"byteLength":27744,
			"byteOffset":27744,
			"target":34962
		},
		{
			"buffer":0,
			"byteLength":18496,
			"byteOffset":55488,
			"target":34962
		},
		{
			"buffer":0,
			"byteLength":9504,
			"byteOffset":73984,
			"target":34963
		}
	],
	"buffers":[
		{
			"byteLength":83488,
			"uri":"data:application/octet-stream;base64,"
		}
	]
}
