{
	"asset":{
		"generator":"Khronos glTF Blender I/O v3.6.27",
		"version":"2.0"
	},
	"scene":0,
	"scenes":[
		{
			"name":"Scene",
			"nodes":[
				0,
				1
			]
		}
	],
	"nodes":[
		{
			"mesh":0,
			"name":"Curve.013",
			"rotation":[
				0.7071068286895752,
				0,
				0,
				0.7071068286895752
			],
			"scale":[
				1.0779600143432617,
				1.0779600143432617,
				1.0779600143432617
			],
			"translation":[
				-1.1363672018051147,
				0.1265607625246048,
				0.015978951007127762
			]
		},
		{
			"mesh":1,
			"name":"Curve.021",
			"rotation":[
				0.7071068286895752,
				0,
				0,
				0.7071068286895752
			],
			"scale":[
				1.0779600143432617,
				1.0779600143432617,
				1.0779600143432617
			],
			"translation":[
				-1.1589527130126953,
				0.04917648434638977,
				0.015978947281837463
			]
		}
	],
	"materials":[
		{
			"doubleSided":true,
			"name":"Material.004",
			"pbrMetallicRoughness":{
				"baseColorFactor":[
					0.8000000715255737,
					0,
					0.002660370897501707,
					1
				],
				"metallicFactor":0,
				"roughnessFactor":0.5
			}
		}
	],
	"meshes":[
		{
			"name":"Curve.042",
			"primitives":[
				{
					"attributes":{
						"POSITION":0,
						"NORMAL":1,
						"TEXCOORD_0":2
					},
					"indices":3,
					"material":0
				}
			]
		},
		{
			"name":"Curve.050",
			"primitives":[
				{
					"attributes":{
						"POSITION":4,
						"NORMAL":5,
						"TEXCOORD_0":6
					},
					"indices":7,
					"material":0
				}
			]
		}
	],
	"accessors":[
		{
			"bufferView":0,
			"componentType":5126,
			"count":602,
			"max":[
				0.023325800895690918,
				0.014823329634964466,
				0.048461444675922394
			],
			"min":[
				-0.020875543355941772,
				-0.01482331845909357,
				-0.04555334895849228
			],
			"type":"VEC3"
		},
		{
			"bufferView":1,
			"componentType":5126,
			"count":602,
			"type":"VEC3"
		},
		{
			"bufferView":2,
			"componentType":5126,
			"count":602,
			"type":"VEC2"
		},
		{
			"bufferView":3,
			"componentType":5123,
			"count":1284,
			"type":"SCALAR"
		},
		{
			"bufferView":4,
			"componentType":5126,
			"count":722,
			"max":[
				0.015352994203567505,
				0.014823329634964466,
				0.022632770240306854
			],
			"min":[
				-0.013838112354278564,
				-0.01482331845909357,
				-0.01890283077955246
			],
			"type":"VEC3"
		},
		{
			"bufferView":5,
			"componentType":5126,
			"count":722,
			"type":"VEC3"
		},
		{
			"bufferView":6,
			"componentType":5126,
			"count":722,
			"type":"VEC2"
		},
		{
			"bufferView":7,
			"componentType":5123,
			"count":1440,
			"type":"SCALAR"
		}
	],
	"bufferViews":[
		{
			"buffer":0,
			"byteLength":7224,
			"byteOffset":0,
			"target":34962
		},
		{
			"buffer":0,
			"byteLength":7224,
			"byteOffset":7224,
			"target":34962
		},
		{
			"buffer":0,
			"byteLength":4816,
			"byteOffset":14448,
			"target":34962
		},
		{
			"buffer":0,
			"byteLength":2568,
			"byteOffset":19264,
			"target":34963
		},
		{
			"buffer":0,
			"byteLength":8664,
			"byteOffset":21832,
			"target":34962
		},
		{
			"buffer":0,
			"byteLength":8664,
			"byteOffset":30496,
			"target":34962
		},
		{
			"buffer":0,
			"byteLength":5776,
			"byteOffset":39160,
			"target":34962
		},
		{
			"buffer":0,
			"byteLength":2880,
			"byteOffset":44936,
			"target":34963
		}
	],
	"buffers":[
		{
			"byteLength":47816,
			"uri":"data:application/octet-stream;base64,"
		}
	]
}
