{
	"asset":{
		"generator":"Khronos glTF Blender I/O v3.6.27",
		"version":"2.0"
	},
	"extensionsUsed":[
		"KHR_materials_specular",
		"KHR_materials_ior"
	],
	"scene":0,
	"scenes":[
		{
			"name":"Scene",
			"nodes":[
				0,
				1,
				2
			]
		}
	],
	"nodes":[
		{
			"mesh":0,
			"name":"L EYE.001",
			"rotation":[
				-0.5083281993865967,
				-0.1884082406759262,
				-0.8037298321723938,
				0.24520018696784973
			],
			"scale":[
				0.6324511170387268,
				0.6324511170387268,
				0.632451057434082
			],
			"translation":[
				6.534317493438721,
				3.017726182937622,
				1.8333815336227417
			]
		},
		{
			"mesh":1,
			"name":"L EYE.007",
			"rotation":[
				-0.11713948100805283,
				-0.6396768093109131,
				-0.3253786265850067,
				0.6864551901817322
			],
			"scale":[
				0.6324508786201477,
				0.6324511766433716,
				0.632451057434082
			],
			"translation":[
				7.895601272583008,
				3.2579398155212402,
				1.7739934921264648
			]
		},
		{
			"mesh":2,
			"name":"BODY.003",
			"scale":[
				1.447239637374878,
				1.264888882637024,
				1.447239637374878
			],
			"translation":[
				7.142055034637451,
				2.7089784145355225,
				-0.08429562300443649
			]
		}
	],
	"animations":[
		{
			"channels":[
				{
					"sampler":0,
					"target":{
						"node":0,
						"path":"translation"
					}
				},
				{
					"sampler":1,
					"target":{
						"node":0,
						"path":"rotation"
					}
				},
				{
					"sampler":2,
					"target":{
						"node":0,
						"path":"scale"
					}
				}
			],
			"name":"L EYE.001Action",
			"samplers":[
				{
					"input":11,
					"interpolation":"LINEAR",
					"output":12
				},
				{
					"input":13,
					"interpolation":"STEP",
					"output":14
				},
				{
					"input":11,
					"interpolation":"LINEAR",
					"output":15
				}
			]
		},
		{
			"channels":[
				{
					"sampler":0,
					"target":{
						"node":1,
						"path":"translation"
					}
				},
				{
					"sampler":1,
					"target":{
						"node":1,
						"path":"rotation"
					}
				},
				{
					"sampler":2,
					"target":{
						"node":1,
						"path":"scale"
					}
				}
			],
			"name":"L EYE.007Action",
			"samplers":[
				{
					"input":11,
					"interpolation":"LINEAR",
					"output":16
				},
				{
					"input":13,
					"interpolation":"LINEAR",
					"output":17
				},
				{
					"input":11,
					"interpolation":"LINEAR",
					"output":18
				}
			]
		},
		{
			"channels":[
				{
					"sampler":0,
					"target":{
						"node":2,
						"path":"translation"
					}
				},
				{
					"sampler":1,
					"target":{
						"node":2,
						"path":"rotation"
					}
				},
				{
					"sampler":2,
					"target":{
						"node":2,
						"path":"scale"
					}
				}
			],
			"name":"BODY.003Action",
			"samplers":[
				{
					"input":11,
					"interpolation":"LINEAR",
					"output":19
				},
				{
					"input":13,
					"interpolation":"STEP",
					"output":20
				},
				{
					"input":11,
					"interpolation":"LINEAR",
					"output":21
				}
			]
		}
	],
	"materials":[
		{
			"doubleSided":true,
			"name":"EYEBALL",
			"pbrMetallicRoughness":{
				"baseColorTexture":{
					"index":0
				},
				"metallicFactor":0,
				"roughnessFactor":0.0928143858909607
			}
		},
		{
			"doubleSided":true,
			"extensions":{
				"KHR_materials_specular":{
					"specularColorFactor":[
						1.0436813753242646,
						1.0436813753242646,
						1.0436813753242646
					]
				},
				"KHR_materials_ior":{
					"ior":1.4500000476837158
				}
			},
			"name":"Material.005",
			"pbrMetallicRoughness":{
				"baseColorFactor":[
					0.6559232473373413,
					0.014356011524796486,
					0.009016899392008781,
					1
				],
				"metallicFactor":0,
				"roughnessFactor":0.5
			}
		}
	],
	"meshes":[
		{
			"name":"Sphere.018",
			"primitives":[
				{
					"attributes":{
						"POSITION":0,
						"NORMAL":1,
						"TEXCOORD_0":2
					},
					"indices":3,
					"material":0
				}
			]
		},
		{
			"name":"Sphere.020",
			"primitives":[
				{
					"attributes":{
						"POSITION":4,
						"NORMAL":5,
						"TEXCOORD_0":6
					},
					"indices":3,
					"material":0
				}
			]
		},
		{
			"name":"Sphere.017",
			"primitives":[
				{
					"attributes":{
						"POSITION":7,
						"NORMAL":8,
						"TEXCOORD_0":9
					},
					"indices":10,
					"material":1
				}
			]
		}
	],
	"textures":[
		{
			"sampler":0,
			"source":0
		}
	],
	"images":[
		{
			"bufferView":4,
			"mimeType":"image/png",
			"name":"EYEBALL"
		}
	],
	"accessors":[
		{
			"bufferView":0,
			"componentType":5126,
			"count":596,
			"max":[
				0.9999997019767761,
				1,
				0.9999993443489075
			],
			"min":[
				-0.9999990463256836,
				-1,
				-1
			],
			"type":"VEC3"
		},
		{
			"bufferView":1,
			"componentType":5126,
			"count":596,
			"type":"VEC3"
		},
		{
			"bufferView":2,
			"componentType":5126,
			"count":596,
			"type":"VEC2"
		},
		{
			"bufferView":3,
			"componentType":5123,
			"count":2880,
			"type":"SCALAR"
		},
		{
			"bufferView":5,
			"componentType":5126,
			"count":596,
			"max":[
				0.9999997019767761,
				1,
				0.9999993443489075
			],
			"min":[
				-0.9999990463256836,
				-1,
				-1
			],
			"type":"VEC3"
		},
		{
			"bufferView":6,
			"componentType":5126,
			"count":596,
			"type":"VEC3"
		},
		{
			"bufferView":7,
			"componentType":5126,
			"count":596,
			"type":"VEC2"
		},
		{
			"bufferView":8,
			"componentType":5126,
			"count":9588,
			"max":[
				1.4754221439361572,
				1.3574978113174438,
				1.3251087665557861
			],
			"min":[
				-1.3551840782165527,
				-1.4354227781295776,
				-1.4216299057006836
			],
			"type":"VEC3"
		},
		{
			"bufferView":9,
			"componentType":5126,
			"count":9588,
			"type":"VEC3"
		},
		{
			"bufferView":10,
			"componentType":5126,
			"count":9588,
			"type":"VEC2"
		},
		{
			"bufferView":11,
			"componentType":5123,
			"count":52128,
			"type":"SCALAR"
		},
		{
			"bufferView":12,
			"componentType":5126,
			"count":31,
			"max":[
				1.25
			],
			"min":[
				0
			],
			"type":"SCALAR"
		},
		{
			"bufferView":13,
			"componentType":5126,
			"count":31,
			"type":"VEC3"
		},
		{
			"bufferView":14,
			"componentType":5126,
			"count":2,
			"max":[
				1.25
			],
			"min":[
				0
			],
			"type":"SCALAR"
		},
		{
			"bufferView":15,
			"componentType":5126,
			"count":2,
			"type":"VEC4"
		},
		{
			"bufferView":16,
			"componentType":5126,
			"count":31,
			"type":"VEC3"
		},
		{
			"bufferView":17,
			"componentType":5126,
			"count":31,
			"type":"VEC3"
		},
		{
			"bufferView":18,
			"componentType":5126,
			"count":2,
			"type":"VEC4"
		},
		{
			"bufferView":19,
			"componentType":5126,
			"count":31,
			"type":"VEC3"
		},
		{
			"bufferView":20,
			"componentType":5126,
			"count":31,
			"type":"VEC3"
		},
		{
			"bufferView":21,
			"componentType":5126,
			"count":2,
			"type":"VEC4"
		},
		{
			"bufferView":22,
			"componentType":5126,
			"count":31,
			"type":"VEC3"
		}
	],
	"bufferViews":[
		{
			"buffer":0,
			"byteLength":7152,
			"byteOffset":0,
			"target":34962
		},
		{
			"buffer":0,
			"byteLength":7152,
			"byteOffset":7152,
			"target":34962
		},
		{
			"buffer":0,
			"byteLength":4768,
			"byteOffset":14304,
			"target":34962
		},
		{
			"buffer":0,
			"byteLength":5760,
			"byteOffset":19072,
			"target":34963
		},
		{
			"buffer":0,
			"byteLength":111533,
			"byteOffset":24832
		},
		{
			"buffer":0,
			"byteLength":7152,
			"byteOffset":136368,
			"target":34962
		},
		{
			"buffer":0,
			"byteLength":7152,
			"byteOffset":143520,
			"target":34962
		},
		{
			"buffer":0,
			"byteLength":4768,
			"byteOffset":150672,
			"target":34962
		},
		{
			"buffer":0,
			"byteLength":115056,
			"byteOffset":155440,
			"target":34962
		},
		{
			"buffer":0,
			"byteLength":115056,
			"byteOffset":270496,
			"target":34962
		},
		{
			"buffer":0,
			"byteLength":76704,
			"byteOffset":385552,
			"target":34962
		},
		{
			"buffer":0,
			"byteLength":104256,
			"byteOffset":462256,
			"target":34963
		},
		{
			"buffer":0,
			"byteLength":124,
			"byteOffset":566512
		},
		{
			"buffer":0,
			"byteLength":372,
			"byteOffset":566636
		},
		{
			"buffer":0,
			"byteLength":8,
			"byteOffset":567008
		},
		{
			"buffer":0,
			"byteLength":32,
			"byteOffset":567016
		},
		{
			"buffer":0,
			"byteLength":372,
			"byteOffset":567048
		},
		{
			"buffer":0,
			"byteLength":372,
			"byteOffset":567420
		},
		{
			"buffer":0,
			"byteLength":32,
			"byteOffset":567792
		},
		{
			"buffer":0,
			"byteLength":372,
			"byteOffset":567824
		},
		{
			"buffer":0,
			"byteLength":372,
			"byteOffset":568196
		},
		{
			"buffer":0,
			"byteLength":32,
			"byteOffset":568568
		},
		{
			"buffer":0,
			"byteLength":372,
			"byteOffset":568600
		}
	],
	"samplers":[
		{
			"magFilter":9729,
			"minFilter":9987
		}
	],
	"buffers":[
		{
			"byteLength":568972,
			"uri":"data:application/octet-stream;base64,"
		}
	]
}
